<?xml version="1.0" encoding="utf-8"?>
<!-- Generator: Adobe Illustrator 21.0.2, SVG Export Plug-In . SVG Version: 6.00 Build 0)  -->
<svg version="1.1" id="Layer_1" xmlns="http://www.w3.org/2000/svg" xmlns:xlink="http://www.w3.org/1999/xlink" x="0px" y="0px"
	 viewBox="0 0 48 48" style="enable-background:new 0 0 48 48;" xml:space="preserve">
<style type="text/css">
	.st0{fill:#BBDEFB;}
	.st1{fill:#1976D2;}
</style>
<g id="surface1">
	<path class="st0" d="M6,10c0-2.2,1.8-4,4-4h28c2.2,0,4,1.8,4,4v28c0,2.2-1.8,4-4,4H10c-2.2,0-4-1.8-4-4V10z"/>
	<path class="st1" d="M27.6,16v2.8h-0.2c-1.3,0-2.4,0.3-3.3,1c-0.9,0.6-1.4,1.5-1.6,2.7c0.8-0.8,1.8-1.2,3-1.2
		c1.3,0,2.4,0.5,3.2,1.5S30,25,30,26.6c0,1-0.2,1.9-0.7,2.7c-0.5,0.8-1.1,1.5-1.9,1.9S25.6,32,24.6,32c-1.1,0-2.1-0.3-2.9-0.8
		c-0.9-0.5-1.5-1.2-2-2.2c-0.5-0.9-0.7-2-0.7-3.2v-1.4c0-1.6,0.3-3,1-4.3c0.7-1.3,1.6-2.3,2.9-3c1.3-0.7,2.6-1.1,4.2-1.1H27.6z
		 M24.4,24.1c-0.5,0-0.9,0.1-1.2,0.3c-0.3,0.2-0.5,0.5-0.7,0.8v1.1c0,2,0.7,2.9,2,2.9c0.5,0,1-0.2,1.3-0.7c0.4-0.5,0.5-1.1,0.5-1.8
		c0-0.8-0.2-1.4-0.6-1.9C25.5,24.3,25,24.1,24.4,24.1z"/>
</g>
</svg>
